<svg xmlns="http://www.w3.org/2000/svg" viewBox="0 0 128 128" style="enable-background:new 0 0 128 128" xml:space="preserve"><path style="fill:#16a34a" d="M87.104 44.974v20.739h-8.171V50.407h-4.148v15.305H54.046V50.407h-4.148v15.305h-8.42V44.974c0-8.213 15.036-12.443 22.813-12.443s22.813 4.23 22.813 12.443zM64.291 26.113c5.791 0 10.37-4.737 10.37-10.581v-3.529c0-5.844-4.579-10.581-10.37-10.581-5.791 0-10.37 4.737-10.37 10.581v3.529c.001 5.844 4.58 10.581 10.37 10.581zm-43.552 6.01v-3.529c0-5.844-4.579-10.581-10.37-10.581C4.579 18.013 0 22.75 0 28.594v3.529c0 5.844 4.579 10.581 10.37 10.581 5.79 0 10.369-4.737 10.369-10.581zm-2.216 23.19.142 29.065h14.517c4.406 0 8.332 2.785 9.787 6.944v35.256l-13.935-.722v-24.887H12.443C5.571 100.969 0 95.398 0 88.526V55.343c0-4.582 3.714-6.222 8.296-6.222h4.005a6.224 6.224 0 0 1 6.222 6.192zm99.107-12.609c5.791 0 10.37-4.737 10.37-10.581v-3.529c0-5.844-4.579-10.581-10.37-10.581-5.791 0-10.37 4.737-10.37 10.581v3.529c.001 5.844 4.58 10.581 10.37 10.581zm-1.931 6.418h4.005c4.582 0 8.296 1.64 8.296 6.222v33.182c0 6.872-5.571 12.443-12.443 12.443H98.965v24.887l-13.935.722V91.322a10.37 10.37 0 0 1 9.787-6.944h14.517l.142-29.065a6.224 6.224 0 0 1 6.223-6.191zM69.476 79.193h32.146v-10.37H29.035v10.37h30.072v46.663h10.37V79.193z"/></svg>